<?xml version="1.0" encoding="UTF-8"?>
<svg id="SVGDoc" width="20" height="20" xmlns="http://www.w3.org/2000/svg" version="1.1" xmlns:xlink="http://www.w3.org/1999/xlink" xmlns:avocode="https://avocode.com/" viewBox="0 0 20 20"><defs></defs><desc>Generated with Avocode.</desc><g><g><title>instagram</title><path d="M13,10c0,1.6569 -1.3431,3 -3,3c-1.6569,0 -3,-1.3431 -3,-3c0,-1.6568 1.3431,-3 3,-3c1.6569,0 3,1.3432 3,3zM5,10c0,2.7614 2.23857,5 5,5c2.7614,0 5,-2.2386 5,-5c0,-2.76142 -2.2386,-5 -5,-5c-2.76143,0 -5,2.23858 -5,5zM14,4.75c0,0.69036 0.5596,1.25 1.25,1.25c0.6904,0 1.25,-0.55964 1.25,-1.25c0,-0.69035 -0.5596,-1.25 -1.25,-1.25c-0.6904,0 -1.25,0.55965 -1.25,1.25zM14.4,2c1.9882,0 3.6,1.61178 3.6,3.6v8.8c0,1.9882 -1.6118,3.6 -3.6,3.6h-8.8c-1.98823,0 -3.6,-1.6118 -3.6,-3.6v-8.8c0,-1.98822 1.61177,-3.6 3.6,-3.6zM0,5.80002v8.39998c0,3.2033 2.59675,5.8 5.8,5.8h8.4c3.2032,0 5.8,-2.5967 5.8,-5.8v-8.39998c0,-3.20325 -2.5968,-5.8 -5.8,-5.8h-8.4c-3.20325,0 -5.8,2.59675 -5.8,5.8z" fill="#ffa236" fill-opacity="1"></path></g></g></svg>