<?xml version="1.0" encoding="UTF-8"?>
<svg id="SVGDoc" width="176" height="115" xmlns="http://www.w3.org/2000/svg" version="1.1" xmlns:xlink="http://www.w3.org/1999/xlink" xmlns:avocode="https://avocode.com/" viewBox="0 0 176 115"><defs></defs><desc>Generated with Avocode.</desc><g><g><title>kazakhstan</title><g><title>Path 50</title><path d="MNaN,NaNcNaN,NaN NaN,NaN NaN,NaNcNaN,NaN NaN,NaN NaN,NaNcNaN,NaN NaN,NaN NaN,NaNcNaN,NaN NaN,NaN NaN,NaNcNaN,NaN NaN,NaN NaN,NaNcNaN,NaN NaN,NaN NaN,NaNcNaN,NaN NaN,NaN NaN,NaNcNaN,NaN NaN,NaN NaN,NaNcNaN,NaN NaN,NaN NaN,NaNz" fill="#82c3d2" fill-opacity="1"></path></g><g><title>Group 18</title><g><title>Path 51</title><path d="M14.40111,18.9434c0.24507,-0.19072 0.46245,-0.41904 0.64565,-0.6771c0.18286,0.25806 0.40059,0.48604 0.64565,0.6771c-0.24506,0.19073 -0.46245,0.41904 -0.64565,0.6771c-0.18286,-0.25806 -0.40024,-0.48637 -0.64565,-0.6771zM19.16609,33.6926c0.27104,0.60977 0.41426,1.2838 0.41426,1.95064c0,0.93243 -0.54072,1.74796 -1.31557,1.98448c-0.62857,0.1962 -1.279,0.08989 -1.78076,-0.28198c-0.50175,-0.37085 -0.78955,-0.94096 -0.78955,-1.5634c0,-0.77928 0.49971,-1.037 0.7147,-1.11185c0.33325,-0.11656 0.65112,-0.04956 0.75332,0.08099c0.08681,0.11006 0.07759,0.41119 -0.23277,0.89961c-0.19243,0.30113 -0.10459,0.70171 0.19722,0.89415c0.3042,0.19072 0.70341,0.10356 0.89413,-0.19894c0.82715,-1.29677 0.38589,-2.10854 0.15757,-2.39838c-0.46928,-0.592 -1.35112,-0.79434 -2.19468,-0.50073c-0.09604,0.03316 -0.19345,0.07451 -0.2895,0.12338v-1.63788c0,0.00034 0.00103,0.00102 0.00103,0.00102c0.01948,0.34111 0.30181,0.61011 0.64634,0.61011c0.35786,0 0.64771,-0.28951 0.64771,-0.64771c0,-0.42245 -0.29531,-1.15527 -1.29507,-1.38222v-1.20825c0,-0.35786 -0.2895,-0.64771 -0.64771,-0.64771c-0.3582,0 -0.6477,0.28949 -0.6477,0.64771v1.20825c-0.99975,0.22694 -1.29507,0.95976 -1.29507,1.38222c0,0.35786 0.28882,0.66924 0.64634,0.66924c0.35786,0 0.64634,-0.26831 0.64634,-0.62616c0.00034,-0.00104 0.00239,-0.00275 0.00274,-0.00377v1.63481c-0.09605,-0.04887 -0.19346,-0.09024 -0.2895,-0.12338c-0.84355,-0.29326 -1.72573,-0.09093 -2.19468,0.50073c-0.22832,0.28949 -0.66992,1.10161 0.15757,2.39838c0.19243,0.30113 0.59199,0.38864 0.89414,0.19894c0.3018,-0.19244 0.38965,-0.59337 0.19722,-0.89415c-0.31035,-0.48843 -0.31958,-0.78955 -0.23277,-0.89961c0.10186,-0.13022 0.41938,-0.1972 0.75332,-0.08101c0.21499,0.07451 0.71469,0.33257 0.71469,1.11186c0,0.62242 -0.28779,1.19289 -0.78955,1.5634c-0.50278,0.37187 -1.15219,0.47818 -1.78076,0.28198c-0.77451,-0.23653 -1.31557,-1.0524 -1.31557,-1.98448c0,-0.66684 0.14287,-1.34088 0.41426,-1.95064l4.11933,-9.26816zM19.16609,43.0534l-4.11933,9.26816l-4.11933,-9.26816c-0.27105,-0.60976 -0.41426,-1.28378 -0.41426,-1.95064c0,-0.9324 0.54072,-1.74794 1.31557,-1.98447c0.62959,-0.19482 1.279,-0.08989 1.78076,0.28198c0.50176,0.37085 0.78955,0.94098 0.78955,1.56339c0,0.7793 -0.49971,1.037 -0.71469,1.11186c-0.33393,0.11757 -0.65146,0.04956 -0.75332,-0.08101c-0.08682,-0.11005 -0.07759,-0.41118 0.23276,-0.8996c0.19243,-0.30113 0.10459,-0.70206 -0.19722,-0.89413c-0.30249,-0.19073 -0.70137,-0.10255 -0.89414,0.19891c-0.82715,1.29678 -0.38589,2.10855 -0.15757,2.39838c0.46894,0.592 1.35112,0.79434 2.19467,0.50073c0.09604,-0.03314 0.19346,-0.07451 0.2895,-0.12338v1.63789l-0.00102,-0.00206c-0.01948,-0.34009 -0.30181,-0.60976 -0.64634,-0.60976c-0.35786,0 -0.64771,0.28951 -0.64771,0.64771c0,0.42249 0.29531,1.15529 1.29507,1.38223v1.20825c0,0.35788 0.2895,0.64771 0.64771,0.64771c0.3582,0 0.6477,-0.28949 0.6477,-0.64771v-1.20825c0.99975,-0.22694 1.29507,-0.95975 1.29507,-1.38223c0,-0.35786 -0.28882,-0.66924 -0.64634,-0.66924c-0.35786,0 -0.64634,0.26831 -0.64634,0.62617c-0.00034,0.00102 -0.00239,0.00273 -0.00239,0.00273l-0.00034,-1.63379c0.09605,0.04889 0.19346,0.09024 0.2895,0.12338c0.84356,0.29327 1.72539,0.09093 2.19468,-0.50073c0.22832,-0.28949 0.66992,-1.10159 -0.15757,-2.39838c-0.19243,-0.30249 -0.59199,-0.39067 -0.89414,-0.19891c-0.30181,0.19241 -0.38964,0.59335 -0.19722,0.89413c0.31035,0.48842 0.31958,0.78955 0.23277,0.8996c-0.10254,0.13022 -0.42007,0.19893 -0.75332,0.08101c-0.21499,-0.07451 -0.7147,-0.33257 -0.7147,-1.11186c0,-0.62241 0.2878,-1.19287 0.78955,-1.56339c0.50278,-0.37186 1.15356,-0.47681 1.78076,-0.28198c0.77451,0.23654 1.31557,1.0524 1.31557,1.98447c0.00068,0.66718 -0.14219,1.34122 -0.41392,1.95097zM15.69275,57.80296c-0.24507,0.19073 -0.46245,0.41905 -0.64565,0.67709c-0.18286,-0.25806 -0.40059,-0.48602 -0.64565,-0.67709c0.24507,-0.19073 0.46245,-0.41904 0.64565,-0.67709c0.18286,0.25772 0.40025,0.48604 0.64565,0.67709zM19.16609,72.55219c0.27104,0.60974 0.41426,1.28378 0.41426,1.95062c0,0.93242 -0.54072,1.74796 -1.31557,1.98447c-0.62857,0.1962 -1.279,0.08989 -1.78076,-0.28198c-0.50175,-0.37085 -0.78955,-0.94096 -0.78955,-1.56339c0,-0.7793 0.49971,-1.037 0.7147,-1.11185c0.33325,-0.11656 0.65112,-0.04956 0.75332,0.08099c0.08681,0.11005 0.07759,0.41119 -0.23277,0.8996c-0.19243,0.30113 -0.10459,0.70172 0.19722,0.89415c0.3042,0.19243 0.70341,0.10356 0.89413,-0.19893c0.82715,-1.29678 0.38589,-2.10855 0.15757,-2.39838c-0.46928,-0.592 -1.35112,-0.79332 -2.19468,-0.50073c-0.09604,0.03314 -0.19345,0.07484 -0.2895,0.12338v-1.63823l0.00103,0.00206c0.01948,0.34009 0.30181,0.60976 0.64634,0.60976c0.35786,0 0.64771,-0.28951 0.64771,-0.64769c0,-0.42249 -0.29531,-1.15529 -1.29507,-1.38225v-1.20825c0,-0.35786 -0.2895,-0.64771 -0.64771,-0.64771c-0.3582,0 -0.6477,0.28949 -0.6477,0.64771v1.20825c-0.99975,0.22696 -1.29507,0.95976 -1.29507,1.38225c0,0.35785 0.28882,0.66888 0.64634,0.66888c0.35786,0 0.64634,-0.26831 0.64634,-0.62616c0.00034,-0.00104 0.00239,-0.00275 0.00239,-0.00275l0.00034,1.63379c-0.09605,-0.04889 -0.19346,-0.09024 -0.2895,-0.12338c-0.84355,-0.29224 -1.72573,-0.09091 -2.19468,0.50073c-0.22832,0.28949 -0.66992,1.10159 0.15757,2.39838c0.19243,0.30113 0.59199,0.38863 0.89414,0.19893c0.3018,-0.19243 0.38965,-0.59335 0.19722,-0.89415c-0.31035,-0.4884 -0.31958,-0.78954 -0.23277,-0.8996c0.10186,-0.13022 0.41938,-0.1972 0.75332,-0.08099c0.21499,0.07449 0.71469,0.33255 0.71469,1.11185c0,0.62242 -0.28779,1.19287 -0.78955,1.56339c-0.50278,0.37189 -1.15219,0.47816 -1.78076,0.28198c-0.77451,-0.23651 -1.31557,-1.0524 -1.31557,-1.98447c0,-0.66684 0.14287,-1.34087 0.41426,-1.95062l4.11933,-9.26817zM19.16609,81.91262l-4.11933,9.26817l-4.11933,-9.26817c-0.27105,-0.60977 -0.41426,-1.28378 -0.41426,-1.95062c0,-0.93245 0.54072,-1.74831 1.31557,-1.98448c0.62959,-0.19482 1.279,-0.0899 1.78076,0.28198c0.50176,0.37085 0.78955,0.94096 0.78955,1.56339c0,0.7793 -0.49971,1.037 -0.71469,1.11186c-0.33393,0.11655 -0.65146,0.04956 -0.75332,-0.08099c-0.08682,-0.11008 -0.07759,-0.41119 0.23276,-0.89961c0.19243,-0.30113 0.10459,-0.70204 -0.19722,-0.89415c-0.30249,-0.1897 -0.70137,-0.10118 -0.89414,0.19894c-0.82715,1.29677 -0.38589,2.10854 -0.15757,2.39838c0.46894,0.59198 1.35112,0.7957 2.19467,0.50073c0.09604,-0.03314 0.19346,-0.07451 0.2895,-0.12338v1.63788c0,-0.00034 -0.00102,-0.00102 -0.00102,-0.00102c-0.01948,-0.34111 -0.30181,-0.61011 -0.64634,-0.61011c-0.35786,0 -0.64771,0.28951 -0.64771,0.64769c0,0.42247 0.29531,1.15527 1.29507,1.38223v1.20825c0,0.35786 0.2895,0.64771 0.64771,0.64771c0.3582,0 0.6477,-0.28949 0.6477,-0.64771v-1.20825c0.99975,-0.22696 1.29507,-0.95976 1.29507,-1.38223c0,-0.35785 -0.28882,-0.66888 -0.64634,-0.66888c-0.35786,0 -0.64634,0.26831 -0.64634,0.62616c-0.00034,0.00104 -0.00239,0.00275 -0.00274,0.00375v-1.6348c0.09605,0.04889 0.19346,0.09024 0.2895,0.12338c0.84356,0.29463 1.72539,0.09091 2.19468,-0.50073c0.22832,-0.28949 0.66992,-1.10159 -0.15757,-2.39838c-0.19243,-0.30115 -0.59199,-0.38966 -0.89414,-0.19893c-0.30181,0.19243 -0.38964,0.59335 -0.19722,0.89415c0.31035,0.4884 0.31958,0.78954 0.23277,0.8996c-0.10254,0.13022 -0.42007,0.1972 -0.75332,0.08099c-0.21499,-0.07449 -0.7147,-0.33255 -0.7147,-1.11185c0,-0.62242 0.2878,-1.19289 0.78955,-1.5634c0.50278,-0.37189 1.15356,-0.47816 1.78076,-0.28198c0.77451,0.23651 1.31557,1.0524 1.31557,1.98448c0.00068,0.66617 -0.14219,1.34055 -0.41392,1.94995zM15.69275,96.66219c-0.24507,0.19073 -0.46245,0.41904 -0.64565,0.67709c-0.18286,-0.25806 -0.40059,-0.48604 -0.64565,-0.67709c0.24507,-0.19073 0.46245,-0.41905 0.64565,-0.67711c0.18286,0.25806 0.40025,0.48637 0.64565,0.67711zM16.15794,104.63528c0.23003,0.69043 0.1497,1.08385 -0.00205,1.22194c-0.10186,0.09227 -0.25122,0.08852 -0.34487,0.04681c-0.11689,-0.05196 -0.11689,-0.13397 -0.11689,-0.17465c0,-0.35785 -0.2895,-0.64769 -0.64771,-0.64769c-0.3582,0 -0.64771,0.28949 -0.64771,0.64769c0,0.04034 0,0.12271 -0.11689,0.17465c-0.09502,0.0417 -0.24541,0.04581 -0.34487,-0.04681c-0.15176,-0.13809 -0.23208,-0.53149 -0.00205,-1.22194c0.16748,-0.50073 0.77349,-1.80435 1.11118,-2.51187c0.33086,0.69078 0.94336,2.00772 1.11186,2.51187zM15.0471,76.55325c0.18594,0.25259 0.39614,0.48775 0.65181,0.67915c-0.25566,0.19174 -0.46587,0.42654 -0.65181,0.67914c-0.18594,-0.25259 -0.39614,-0.48773 -0.65181,-0.67914c0.25566,-0.19176 0.46587,-0.42587 0.65181,-0.67915zM15.0471,37.6937c0.18594,0.25258 0.39614,0.48773 0.65181,0.67914c-0.25566,0.19174 -0.46587,0.42657 -0.65181,0.67915c-0.18594,-0.25258 -0.39614,-0.48775 -0.65181,-0.67915c0.25566,-0.19174 0.46587,-0.42622 0.65181,-0.67914zM13.93592,10.97031c-0.23003,-0.69043 -0.14971,-1.08384 0.00205,-1.22192c0.09912,-0.09366 0.24951,-0.08989 0.34487,-0.04683c0.11689,0.05196 0.11689,0.13432 0.11689,0.17466c0,0.35786 0.2895,0.6477 0.64771,0.6477c0.35786,0 0.6477,-0.2895 0.6477,-0.6477c0,-0.04034 0,-0.1227 0.11689,-0.17466c0.09365,-0.04306 0.24302,-0.04683 0.34487,0.04683c0.15176,0.13808 0.23208,0.53149 0.00205,1.22192c-0.16748,0.50072 -0.77348,1.80434 -1.11118,2.51186c-0.33086,-0.69112 -0.94336,-2.00772 -1.11186,-2.51186zM20.50866,13.73032c-0.27309,-1.15631 -0.34111,-1.58252 0.17773,-2.10103c0.25293,-0.25293 0.25293,-0.66275 0,-0.91568c-0.25293,-0.25292 -0.66274,-0.25292 -0.91567,0c-1.05,1.05034 -0.79946,2.14034 -0.52773,3.29459c-0.82783,-0.27037 -1.68642,-0.06973 -2.14648,0.51064c-0.22832,0.28951 -0.66992,1.10162 0.15757,2.39839c0.19243,0.30112 0.59029,0.38966 0.89414,0.19892c0.3018,-0.19244 0.38965,-0.59336 0.19721,-0.89414c-0.31035,-0.48842 -0.31958,-0.78954 -0.23276,-0.8996c0.10254,-0.13023 0.42041,-0.19892 0.75332,-0.081c0.21499,0.07451 0.71469,0.33257 0.71469,1.11186c0,0.62241 -0.28779,1.19288 -0.78955,1.56339c-0.50278,0.37187 -1.15356,0.47681 -1.78075,0.28197c-0.77451,-0.23652 -1.31557,-1.05239 -1.31557,-1.98447c0,-0.66684 0.14287,-1.34087 0.40537,-1.93149c0.0417,-0.08716 1.03154,-2.1376 1.28652,-2.90186c0.50415,-1.51176 -0.0082,-2.27192 -0.35786,-2.58945c-0.46792,-0.42622 -1.15186,-0.53253 -1.74043,-0.27448c-0.08955,0.03965 -0.16338,0.09708 -0.24097,0.1504c-0.07759,-0.05367 -0.15176,-0.11074 -0.24097,-0.1504c-0.58823,-0.25806 -1.27183,-0.15175 -1.74043,0.27448c-0.34966,0.31753 -0.86201,1.07803 -0.35786,2.58945c0.25498,0.76426 1.24448,2.8147 1.27729,2.88306c0.27104,0.60977 0.41426,1.28378 0.41426,1.95064c0,0.93242 -0.54072,1.74795 -1.31557,1.98447c-0.62959,0.19448 -1.27832,0.09092 -1.78076,-0.28198c-0.50175,-0.37085 -0.78955,-0.94097 -0.78955,-1.56339c0,-0.77929 0.49971,-1.03701 0.71469,-1.11187c0.33393,-0.11757 0.6501,-0.04956 0.75332,0.08101c0.08682,0.11006 0.07759,0.41118 -0.23276,0.89961c-0.19243,0.30112 -0.10459,0.70205 0.19722,0.89413c0.3042,0.19244 0.70342,0.10255 0.89414,-0.19893c0.82714,-1.29677 0.38589,-2.10854 0.15757,-2.39838c-0.4604,-0.58037 -1.31865,-0.78101 -2.14648,-0.51065c0.27207,-1.15357 0.52227,-2.24424 -0.52773,-3.29458c-0.25293,-0.25293 -0.66274,-0.25293 -0.91567,0c-0.25293,0.25293 -0.25293,0.66274 0,0.91567c0.51851,0.5185 0.45117,0.94473 0.17773,2.10103c-0.16406,0.69282 -0.36777,1.55688 -0.36777,2.62192c0,0.70854 0.24917,1.38634 0.66821,1.94312h-0.02085c-0.35786,0 -0.6477,0.28951 -0.6477,0.64771c0,0.35786 0.2895,0.64771 0.6477,0.64771h0.02085c-0.41904,0.55679 -0.66821,1.23422 -0.66821,1.94278c0,1.06503 0.20371,1.9291 0.36743,2.62226c0.2731,1.1563 0.34111,1.58252 -0.17773,2.10103c-0.25293,0.25293 -0.25293,0.66273 0,0.91566c0.12646,0.12646 0.29223,0.1897 0.45801,0.1897c0.16543,0 0.33154,-0.06323 0.45801,-0.1897c1.05,-1.05034 0.79946,-2.14067 0.52773,-3.29457c0.82783,0.26932 1.68642,0.06972 2.14648,-0.51065c0.22832,-0.28951 0.66992,-1.10161 -0.15757,-2.39839c-0.19175,-0.30112 -0.59199,-0.39068 -0.89414,-0.19892c-0.30181,0.19243 -0.38965,0.59335 -0.19722,0.89414c0.31035,0.48843 0.31958,0.78955 0.23276,0.89961c-0.10288,0.12885 -0.41938,0.1972 -0.75332,0.081c-0.21499,-0.07452 -0.71469,-0.33257 -0.71469,-1.11187c0,-0.62241 0.28779,-1.19288 0.78955,-1.56338c0.50278,-0.37187 1.15288,-0.47818 1.78076,-0.28198c0.77451,0.23653 1.31557,1.05238 1.31557,1.98447c0,0.66685 -0.14287,1.34087 -0.41426,1.95062l-4.24203,9.54332c-0.34863,0.78407 -0.52568,1.61806 -0.52568,2.47665c0,1.10504 0.50244,2.11403 1.29336,2.72993c-0.79058,0.61592 -1.29336,1.62491 -1.29336,2.72992c0,0.85895 0.17739,1.69258 0.52568,2.47665l4.24135,9.54265c0.27105,0.60976 0.41426,1.2838 0.41426,1.95064c0,0.93242 -0.54072,1.74794 -1.31557,1.98447c-0.62959,0.1962 -1.27832,0.09091 -1.78076,-0.28198c-0.50176,-0.37085 -0.78955,-0.94096 -0.78955,-1.56339c0,-0.7793 0.49971,-1.037 0.71469,-1.11185c0.33394,-0.11656 0.6501,-0.04956 0.75332,0.08099c0.08682,0.11006 0.07759,0.41119 -0.23276,0.89961c-0.19243,0.30112 -0.10459,0.70204 0.19722,0.89413c0.3042,0.19243 0.70341,0.10356 0.89414,-0.19893c0.82715,-1.29677 0.38589,-2.10854 0.15757,-2.39839c-0.4604,-0.58037 -1.31865,-0.78033 -2.14648,-0.51065c0.27207,-1.15356 0.52226,-2.24423 -0.52773,-3.29457c-0.25293,-0.25293 -0.66274,-0.25293 -0.91567,0c-0.25293,0.25293 -0.25293,0.66273 0,0.91566c0.51851,0.51851 0.45117,0.94473 0.17773,2.10103c-0.16372,0.69316 -0.36743,1.55724 -0.36743,2.62228c0,0.70853 0.24917,1.38632 0.66821,1.9431h-0.02085c-0.35786,0 -0.6477,0.28951 -0.6477,0.64771c0,0.3582 0.2895,0.64771 0.6477,0.64771h0.02085c-0.41938,0.55678 -0.66821,1.23422 -0.66821,1.9431c0,1.06503 0.20371,1.92912 0.36743,2.62228c0.2731,1.1563 0.34111,1.58252 -0.17773,2.10103c-0.25293,0.25293 -0.25293,0.66273 0,0.91565c0.12646,0.12646 0.29224,0.1897 0.45801,0.1897c0.16543,0 0.33154,-0.06323 0.45801,-0.1897c1.05,-1.05032 0.79946,-2.14066 0.52773,-3.29456c0.82783,0.26932 1.68642,0.06972 2.14648,-0.51065c0.22832,-0.28951 0.66992,-1.10162 -0.15757,-2.39839c-0.19175,-0.30113 -0.59199,-0.39069 -0.89414,-0.19893c-0.30181,0.19243 -0.38965,0.59335 -0.19722,0.89413c0.31035,0.48842 0.31958,0.78955 0.23277,0.89961c-0.10288,0.13022 -0.41938,0.19891 -0.75332,0.08099c-0.21499,-0.07449 -0.71469,-0.33255 -0.71469,-1.11185c0,-0.62242 0.28779,-1.19287 0.78955,-1.56339c0.50278,-0.37189 1.15288,-0.47818 1.78076,-0.28198c0.77451,0.23651 1.31557,1.0524 1.31557,1.98447c0,0.66684 -0.14287,1.34087 -0.41426,1.95064l-4.24169,9.54434c-0.34863,0.78407 -0.52568,1.61806 -0.52568,2.47665c0,1.10503 0.50244,2.11401 1.29336,2.72993c-0.79057,0.61591 -1.29336,1.62489 -1.29336,2.72993c0,0.85893 0.17739,1.69257 0.52568,2.47665l4.24135,9.54262c0.27105,0.60977 0.41426,1.2838 0.41426,1.95065c0,0.9324 -0.54072,1.74794 -1.31557,1.98447c-0.62959,0.19618 -1.27832,0.08987 -1.78076,-0.282c-0.50176,-0.37083 -0.78955,-0.94096 -0.78955,-1.56337c0,-0.7793 0.49971,-1.03702 0.7147,-1.11186c0.33393,-0.11656 0.65009,-0.04956 0.75332,0.08101c0.08682,0.11005 0.07759,0.41118 -0.23276,0.8996c-0.19243,0.30112 -0.10459,0.70172 0.19722,0.89413c0.3042,0.19243 0.70342,0.10358 0.89414,-0.19891c0.82715,-1.29678 0.38589,-2.10855 0.15757,-2.39839c-0.4604,-0.58208 -1.31865,-0.78101 -2.14648,-0.51064c0.27207,-1.15356 0.52226,-2.24423 -0.52773,-3.29459c-0.25293,-0.25293 -0.66274,-0.25293 -0.91567,0c-0.25293,0.25293 -0.25293,0.66275 0,0.91568c0.51851,0.51849 0.45117,0.94472 0.17773,2.10101c-0.16372,0.69318 -0.36743,1.55688 -0.36743,2.62192c0,1.01514 0.48637,1.98174 1.29951,2.59084c-0.81313,0.60907 -1.29951,1.57567 -1.29951,2.59081c0,1.06503 0.20371,1.92909 0.36743,2.62225c0.2731,1.15596 0.34111,1.58252 -0.17773,2.10103c-0.25293,0.25293 -0.25293,0.66273 0,0.91568c0.12647,0.12646 0.29224,0.1897 0.45801,0.1897c0.16543,0 0.33154,-0.06323 0.45801,-0.1897c1.05,-1.05035 0.79946,-2.14069 0.52773,-3.29459c0.82783,0.26933 1.68642,0.06972 2.14648,-0.51065c0.22832,-0.28949 0.66992,-1.10161 -0.15757,-2.39838c-0.19175,-0.30113 -0.59199,-0.38965 -0.89414,-0.19893c-0.30181,0.19243 -0.38965,0.59335 -0.19722,0.89413c0.31035,0.48843 0.31958,0.78955 0.23276,0.89961c-0.10288,0.13022 -0.41938,0.1972 -0.75332,0.08099c-0.21499,-0.07449 -0.71469,-0.33255 -0.71469,-1.11185c0,-0.62242 0.28779,-1.19287 0.78955,-1.56339c0.50278,-0.37189 1.15288,-0.47681 1.78076,-0.28198c0.77451,0.23651 1.31557,1.0524 1.31557,1.98447c0,0.66684 -0.14287,1.34087 -0.40537,1.93149c-0.0417,0.08716 -1.03154,2.13759 -1.28652,2.90186c-0.50415,1.51178 0.0082,2.27193 0.35786,2.58945c0.29907,0.27208 0.68428,0.41495 1.07803,0.41495c0.22319,0 0.44946,-0.04683 0.66274,-0.14014c0.08955,-0.03966 0.16338,-0.09708 0.24097,-0.15039c0.07759,0.05367 0.15176,0.11073 0.24097,0.15039c0.21294,0.09364 0.43955,0.14014 0.66274,0.14014c0.39272,0 0.77861,-0.14287 1.07803,-0.41495c0.34966,-0.31752 0.86201,-1.07802 0.35786,-2.58945c-0.25498,-0.76427 -1.24448,-2.8147 -1.27729,-2.88306c-0.27105,-0.60976 -0.41426,-1.28378 -0.41426,-1.95064c0,-0.93242 0.54073,-1.74828 1.31557,-1.98445c0.62993,-0.19484 1.27832,-0.0899 1.78076,0.28198c0.50176,0.37083 0.78955,0.94095 0.78955,1.56337c0,0.7793 -0.49971,1.037 -0.71469,1.11186c-0.33257,0.11655 -0.65112,0.04956 -0.75332,-0.08101c-0.08682,-0.11005 -0.07759,-0.41118 0.23276,-0.8996c0.19243,-0.30113 0.10459,-0.70172 -0.19722,-0.89413c-0.30249,-0.1897 -0.70136,-0.10118 -0.89414,0.19891c-0.82714,1.29678 -0.38589,2.10855 -0.15757,2.39839c0.4604,0.58037 1.31865,0.78032 2.14648,0.51064c-0.27207,1.15356 -0.52226,2.24423 0.52773,3.29459c0.12646,0.12646 0.29224,0.1897 0.45801,0.1897c0.16577,0 0.33154,-0.06323 0.45801,-0.1897c0.25293,-0.25293 0.25293,-0.66275 0,-0.91568c-0.51851,-0.51849 -0.45117,-0.94472 -0.17773,-2.10101c0.16372,-0.69318 0.36743,-1.55724 0.36743,-2.62227c0,-1.01514 -0.48638,-1.98174 -1.29951,-2.59081c0.81313,-0.6091 1.29951,-1.57536 1.29951,-2.59082c0,-1.06505 -0.20371,-1.92911 -0.36743,-2.62227c-0.27309,-1.15596 -0.34111,-1.58252 0.17773,-2.10103c0.25293,-0.25293 0.25293,-0.66273 0,-0.91565c-0.25293,-0.25293 -0.66274,-0.25293 -0.91567,0c-1.05,1.05032 -0.79946,2.14032 -0.52773,3.29456c-0.82783,-0.27036 -1.68642,-0.07144 -2.14648,0.51065c-0.22832,0.28949 -0.66992,1.10161 0.15757,2.39838c0.19243,0.30113 0.59029,0.38965 0.89414,0.19893c0.3018,-0.19243 0.38965,-0.59335 0.19721,-0.89413c-0.31035,-0.48842 -0.31958,-0.78955 -0.23276,-0.89961c0.10254,-0.13022 0.42041,-0.1972 0.75332,-0.08099c0.21499,0.07449 0.71469,0.33255 0.71469,1.11185c0,0.62242 -0.28779,1.19287 -0.78955,1.56339c-0.50278,0.37189 -1.15356,0.47818 -1.78075,0.28198c-0.77451,-0.23651 -1.31557,-1.0524 -1.31557,-1.98447c0,-0.66684 0.14287,-1.34087 0.41426,-1.95062l4.24135,-9.54263c0.34863,-0.78407 0.52568,-1.61806 0.52568,-2.47665c0,-1.10504 -0.50244,-2.11401 -1.29336,-2.72995c0.79057,-0.61591 1.29336,-1.62489 1.29336,-2.72992c0,-0.85893 -0.17739,-1.69257 -0.52568,-2.47665l-4.24101,-9.54195c-0.27105,-0.60977 -0.41426,-1.2838 -0.41426,-1.95064c0,-0.93242 0.54072,-1.74796 1.31557,-1.98447c0.62993,-0.19482 1.27832,-0.0899 1.78076,0.28198c0.50175,0.37085 0.78955,0.94096 0.78955,1.56339c0,0.7793 -0.49971,1.037 -0.7147,1.11185c-0.33257,0.11758 -0.65112,0.04956 -0.75331,-0.08099c-0.08682,-0.11006 -0.07759,-0.41119 0.23276,-0.89961c0.19243,-0.30113 0.10459,-0.70171 -0.19722,-0.89413c-0.30249,-0.1897 -0.70137,-0.10117 -0.89414,0.19893c-0.82715,1.29678 -0.38589,2.10854 -0.15757,2.39839c0.4604,0.58038 1.31865,0.78032 2.14648,0.51065c-0.27207,1.15356 -0.52227,2.24423 0.52773,3.29457c0.12646,0.12645 0.29223,0.18968 0.458,0.18968c0.16577,0 0.33154,-0.06323 0.45801,-0.18968c0.25293,-0.25293 0.25293,-0.66273 0,-0.91566c-0.51851,-0.51851 -0.45117,-0.94473 -0.17773,-2.10103c0.16372,-0.69316 0.36743,-1.55724 0.36743,-2.62228c0,-0.70853 -0.24917,-1.38632 -0.66821,-1.9431h0.02085c0.35786,0 0.64771,-0.28951 0.64771,-0.64769c0,-0.35788 -0.2895,-0.64772 -0.64771,-0.64772h-0.02085c0.41939,-0.55678 0.66821,-1.23387 0.66821,-1.9431c0,-1.06503 -0.20371,-1.92912 -0.36743,-2.62228c-0.27309,-1.1563 -0.34111,-1.58252 0.17773,-2.10103c0.25293,-0.25293 0.25293,-0.66273 0,-0.91566c-0.25293,-0.25293 -0.66274,-0.25293 -0.91567,0c-1.05,1.05034 -0.79946,2.14067 -0.52773,3.29457c-0.82783,-0.26932 -1.68642,-0.06972 -2.14648,0.51065c-0.22832,0.28952 -0.66992,1.10162 0.15757,2.39839c0.19243,0.30112 0.59028,0.38863 0.89414,0.19893c0.3018,-0.19243 0.38965,-0.59335 0.19722,-0.89413c-0.31035,-0.48842 -0.31958,-0.78955 -0.23276,-0.89961c0.10254,-0.13022 0.42041,-0.1972 0.75332,-0.08099c0.21499,0.07449 0.71469,0.33257 0.71469,1.11185c0,0.62242 -0.28779,1.19287 -0.78955,1.56339c-0.50278,0.37189 -1.15356,0.47681 -1.78076,0.28198c-0.77451,-0.23651 -1.31557,-1.0524 -1.31557,-1.98447c0,-0.66684 0.14287,-1.34087 0.41426,-1.95064l4.24135,-9.54263c0.34863,-0.78409 0.52568,-1.61806 0.52568,-2.47667c0,-1.10501 -0.50244,-2.114 -1.29336,-2.72992c0.79058,-0.61591 1.29336,-1.62489 1.29336,-2.72993c0,-0.85895 -0.17739,-1.69257 -0.52568,-2.47665l-4.24135,-9.54263c-0.27105,-0.60976 -0.41426,-1.28378 -0.41426,-1.95063c0,-0.93243 0.54073,-1.74796 1.31557,-1.98447c0.62993,-0.19483 1.27832,-0.0899 1.78076,0.28197c0.50176,0.37086 0.78955,0.94097 0.78955,1.56339c0,0.7793 -0.49971,1.037 -0.71469,1.11186c-0.33257,0.11655 -0.65112,0.04785 -0.75332,-0.08101c-0.08682,-0.11006 -0.07759,-0.41118 0.23276,-0.8996c0.19243,-0.30113 0.10459,-0.70206 -0.19722,-0.89415c-0.30249,-0.18969 -0.70136,-0.10254 -0.89414,0.19859c-0.82714,1.29678 -0.38589,2.10855 -0.15757,2.39839c0.4604,0.58037 1.31865,0.78032 2.14648,0.51065c-0.27207,1.15356 -0.52226,2.24423 0.52773,3.29457c0.12646,0.12646 0.29224,0.1897 0.45801,0.1897c0.16577,0 0.33154,-0.06323 0.45801,-0.1897c0.25293,-0.25293 0.25293,-0.66273 0,-0.91566c-0.51851,-0.51851 -0.45117,-0.94473 -0.17773,-2.10103c0.16372,-0.69316 0.36743,-1.55723 0.36743,-2.62227c0,-0.70855 -0.24917,-1.38633 -0.66821,-1.94311h0.02085c0.35786,0 0.64771,-0.28951 0.64771,-0.64771c0,-0.35786 -0.28951,-0.64771 -0.64771,-0.64771h-0.02085c0.41938,-0.55679 0.66821,-1.23389 0.66821,-1.94312c-0.00205,-1.06675 -0.20576,-1.93081 -0.36914,-2.62397z" fill="#ffe15a" fill-opacity="1"></path></g><g><title>Ellipse 2</title><path d="M77.11628,50.16003c0,-8.60899 6.97897,-15.58796 15.58796,-15.58796c8.60899,0 15.58796,6.97897 15.58796,15.58796c0,8.60899 -6.97897,15.58796 -15.58796,15.58796c-8.60899,0 -15.58796,-6.97897 -15.58796,-15.58796z" fill="#ffe15a" fill-opacity="1"></path></g><g><title>Path 52</title><path d="M93.87557,30.28556c0,0.64566 -0.52362,1.16928 -1.16928,1.16928c-0.64566,0 -1.16928,-0.52362 -1.16928,-1.16928c0,-0.64566 1.16928,-3.50751 1.16928,-3.50751v0c0,0 1.16928,2.86186 1.16928,3.50751z" fill="#ffe15a" fill-opacity="1"></path></g><g><title>Path 53</title><path d="M91.53733,70.03757c0,-0.64566 0.52362,-1.16928 1.16928,-1.16928c0.64566,0 1.16928,0.52362 1.16928,1.16928c0,0.64566 -1.16928,3.50751 -1.16928,3.50751v0c0,0 -1.16928,-2.86151 -1.16928,-3.50751z" fill="#ffe15a" fill-opacity="1"></path></g><g><title>Path 54</title><path d="M112.58242,51.3307c-0.64566,0 -1.16928,-0.52364 -1.16928,-1.16928c0,-0.64566 0.52365,-1.1693 1.16928,-1.1693c0.64566,0 3.50751,1.1693 3.50751,1.1693v0c0,0 -2.86185,1.16928 -3.50751,1.16928z" fill="#ffe15a" fill-opacity="1"></path></g><g><title>Path 55</title><path d="M72.83048,48.99247c0.64566,0 1.16928,0.52365 1.16928,1.1693c0,0.64565 -0.52362,1.1693 -1.16928,1.1693c-0.64566,0 -3.50751,-1.1693 -3.50751,-1.1693v0c0,0 2.86185,-1.1693 3.50751,-1.1693z" fill="#ffe15a" fill-opacity="1"></path></g><g><title>Path 56</title><path d="M107.58774,36.93385c-0.45663,0.45665 -1.19662,0.45665 -1.65359,0c-0.457,-0.45663 -0.45667,-1.19662 0,-1.65359c0.45663,-0.45699 3.30685,-1.65361 3.30685,-1.65361v0c0,0 -1.19626,2.85057 -1.65326,3.30721z" fill="#ffe15a" fill-opacity="1"></path></g><g><title>Path 57</title><path d="M77.82551,63.38927c0.45663,-0.45663 1.19662,-0.45663 1.65361,0c0.45699,0.45667 0.45663,1.19666 0,1.65363c-0.45665,0.45697 -3.30688,1.65326 -3.30688,1.65326v0c0,0 1.19664,-2.84988 1.65327,-3.30688z" fill="#ffe15a" fill-opacity="1"></path></g><g><title>Path 58</title><path d="M105.93447,65.0429c-0.45663,-0.45663 -0.45663,-1.19662 0,-1.65363c0.45667,-0.45697 1.19666,-0.45663 1.65363,0c0.45697,0.45667 1.65363,3.30688 1.65363,3.30688v0c0,0 -2.85059,-1.19696 -3.30725,-1.65326z" fill="#ffe15a" fill-opacity="1"></path></g><g><title>Path 59</title><path d="M79.47876,35.28025c0.45665,0.45665 0.45665,1.19664 0,1.65363c-0.45663,0.45697 -1.19662,0.45663 -1.65359,0c-0.45699,-0.45663 -1.65363,-3.30688 -1.65363,-3.30688v0c0,0 2.85059,1.19696 3.30722,1.65326z" fill="#ffe15a" fill-opacity="1"></path></g><g><title>Path 60</title><path d="M86.18071,31.35094c0.24712,0.59677 -0.03624,1.28036 -0.63301,1.52748c-0.59677,0.24712 -1.28036,-0.03622 -1.52748,-0.63301c-0.24712,-0.59677 -0.26216,-3.68797 -0.26216,-3.68797v0c0,0 2.17554,2.19672 2.42265,2.7935z" fill="#ffe15a" fill-opacity="1"></path></g><g><title>Path 61</title><path d="M99.23288,68.97218c-0.2471,-0.59674 0.03622,-1.28033 0.633,-1.52747c0.59677,-0.24713 1.28036,0.03622 1.5275,0.633c0.24713,0.59677 0.26215,3.68799 0.26215,3.68799v0c0,0 -2.17587,-2.19672 -2.42264,-2.79352z" fill="#ffe15a" fill-opacity="1"></path></g><g><title>Path 62</title><path d="M111.51705,43.63581c-0.5968,0.24713 -1.2804,-0.03622 -1.5275,-0.633c-0.2471,-0.59677 0.03622,-1.28036 0.633,-1.5275c0.59677,-0.24712 3.68765,-0.26215 3.68765,-0.26215v0c0,0 -2.19638,2.17519 -2.79315,2.42264z" fill="#ffe15a" fill-opacity="1"></path></g><g><title>Path 63</title><path d="M73.89621,56.68732c0.59677,-0.24712 1.28036,0.03624 1.52748,0.63301c0.24712,0.59677 -0.03624,1.28036 -0.63301,1.5275c-0.59677,0.2471 -3.68797,0.26215 -3.68797,0.26215v0c0,0 2.19673,-2.1752 2.7935,-2.42265z" fill="#ffe15a" fill-opacity="1"></path></g><g><title>Path 64</title><path d="M101.39303,32.24577c-0.2471,0.59677 -0.93103,0.87978 -1.52747,0.63301c-0.59677,-0.24713 -0.87979,-0.93106 -0.633,-1.5275c0.2471,-0.59644 2.4223,-2.79315 2.4223,-2.79315v0c0,0 -0.01471,3.0912 -0.26184,3.68764z" fill="#ffe15a" fill-opacity="1"></path></g><g><title>Path 65</title><path d="M84.02021,68.07737c0.24713,-0.59677 0.93106,-0.87979 1.5275,-0.633c0.59677,0.2471 0.87979,0.93103 0.633,1.52747c-0.2471,0.5968 -2.4223,2.79315 -2.4223,2.79315v0c0,0 0.01471,-3.09085 0.26181,-3.68762z" fill="#ffe15a" fill-opacity="1"></path></g><g><title>Path 66</title><path d="M110.62256,58.84783c-0.59677,-0.24712 -0.87979,-0.93106 -0.633,-1.5275c0.2471,-0.59677 0.93103,-0.87978 1.52747,-0.633c0.59644,0.24677 2.79315,2.4223 2.79315,2.4223v0c0,0 -3.09155,-0.01434 -3.68762,-0.26181z" fill="#ffe15a" fill-opacity="1"></path></g><g><title>Path 67</title><path d="M74.79068,41.47533c0.59679,0.24712 0.87979,0.93105 0.63303,1.52747c-0.24713,0.59644 -0.93106,0.87979 -1.5275,0.63303c-0.59644,-0.24713 -2.79315,-2.42232 -2.79315,-2.42232v0c0,0 3.09154,0.01436 3.68762,0.26183z" fill="#ffe15a" fill-opacity="1"></path></g><g><title>Path 68</title><path d="M89.97602,30.43937c0.12613,0.63336 -0.28506,1.24893 -0.91873,1.37471c-0.63336,0.12613 -1.24893,-0.28505 -1.37473,-0.91875c-0.12613,-0.63335 0.46246,-3.66815 0.46246,-3.66815v0c0,0 1.70486,2.57884 1.83099,3.21219z" fill="#ffe15a" fill-opacity="1"></path></g><g><title>Path 69</title><path d="M95.43757,69.88375c-0.12613,-0.63333 0.28506,-1.2489 0.91873,-1.37469c0.6337,-0.12613 1.24893,0.28506 1.37473,0.91873c0.1261,0.63336 -0.46246,3.66815 -0.46246,3.66815v0c0,0 -1.7052,-2.57883 -1.83099,-3.21219z" fill="#ffe15a" fill-opacity="1"></path></g><g><title>Path 70</title><path d="M112.42893,47.43044c-0.63333,0.12611 -1.2489,-0.28505 -1.37469,-0.91875c-0.12613,-0.6337 0.28506,-1.24893 0.91873,-1.37471c0.63336,-0.12611 3.66815,0.46245 3.66815,0.46245v0c0,0 -2.57883,1.70523 -3.21219,1.83101z" fill="#ffe15a" fill-opacity="1"></path></g><g><title>Path 71</title><path d="M72.9843,52.89269c0.63335,-0.12611 1.24892,0.28506 1.37471,0.91876c0.12611,0.63368 -0.28506,1.24892 -0.91876,1.37469c-0.63333,0.12613 -3.66815,-0.46245 -3.66815,-0.46245v0c0,0 2.57886,-1.70522 3.2122,-1.83101z" fill="#ffe15a" fill-opacity="1"></path></g><g><title>Path 72</title><path d="M104.72146,34.28493c-0.35855,0.53697 -1.08487,0.6812 -1.62183,0.32231c-0.53696,-0.35889 -0.68121,-1.08487 -0.32233,-1.62183c0.35855,-0.53696 2.92065,-2.26678 2.92065,-2.26678v0c0,0 -0.61798,3.02899 -0.9765,3.5663z" fill="#ffe15a" fill-opacity="1"></path></g><g><title>Path 73</title><path d="M80.69181,66.03822c0.35855,-0.53699 1.08487,-0.68121 1.62183,-0.32233c0.53696,0.35855 0.68118,1.08487 0.3223,1.62183c-0.35854,0.53699 -2.92064,2.26678 -2.92064,2.26678v0c0,0 0.61797,-3.02899 0.97652,-3.56628z" fill="#ffe15a" fill-opacity="1"></path></g><g><title>Path 74</title><path d="M108.58341,62.17623c-0.53699,-0.35852 -0.68121,-1.08484 -0.32233,-1.62183c0.35889,-0.53693 1.08487,-0.68118 1.62183,-0.3223c0.53699,0.35855 2.26678,2.92065 2.26678,2.92065v0c0,0 -3.02933,-0.61798 -3.56628,-0.97653z" fill="#ffe15a" fill-opacity="1"></path></g><g><title>Path 75</title><path d="M76.82984,38.14692c0.53696,0.35854 0.6812,1.08485 0.32231,1.62181c-0.35855,0.53697 -1.08487,0.6812 -1.62183,0.32231c-0.53696,-0.35889 -2.26678,-2.92065 -2.26678,-2.92065v0c0,0 3.02968,0.61798 3.5663,0.97653z" fill="#ffe15a" fill-opacity="1"></path></g><g><title>Path 76</title><path d="M82.63595,32.98544c0.35855,0.53696 0.21429,1.26294 -0.32231,1.62183c-0.53662,0.35887 -1.26294,0.21429 -1.62183,-0.32233c-0.35854,-0.53696 -0.97652,-3.56595 -0.97652,-3.56595v0c0,0 2.5621,1.72983 2.92065,2.26645z" fill="#ffe15a" fill-opacity="1"></path></g><g><title>Path 77</title><path d="M102.77695,67.33772c-0.35855,-0.53696 -0.21429,-1.26294 0.32233,-1.62183c0.53662,-0.35855 1.26294,-0.21429 1.6218,0.32233c0.35855,0.53696 0.97653,3.56595 0.97653,3.56595v0c0,0 -2.56177,-1.72983 -2.92065,-2.26645z" fill="#ffe15a" fill-opacity="1"></path></g><g><title>Path 78</title><path d="M109.88256,40.09101c-0.53699,0.35855 -1.26294,0.21432 -1.62183,-0.3223c-0.35855,-0.53697 -0.21429,-1.26294 0.32233,-1.62183c0.53696,-0.35855 3.56595,-0.9765 3.56595,-0.9765v0c0,0 -1.72949,2.56209 -2.26645,2.92062z" fill="#ffe15a" fill-opacity="1"></path></g><g><title>Path 79</title><path d="M75.53067,60.23209c0.53696,-0.35855 1.26294,-0.21429 1.62181,0.32233c0.35854,0.53696 0.21431,1.26294 -0.32231,1.6218c-0.53696,0.35858 -3.56595,0.97653 -3.56595,0.97653v0c0,0 1.72948,-2.5621 2.26645,-2.92065z" fill="#ffe15a" fill-opacity="1"></path></g><g><title>Path 80</title><path d="M97.73104,30.89533c-0.12613,0.63335 -0.74136,1.04488 -1.37473,0.91875c-0.63333,-0.12611 -1.04486,-0.74135 -0.91873,-1.37469c0.12613,-0.63335 1.83099,-3.2122 1.83099,-3.2122v0c0,0 0.58826,3.03481 0.46246,3.66815z" fill="#ffe15a" fill-opacity="1"></path></g><g><title>Path 81</title><path d="M87.68223,69.4278c0.12613,-0.63333 0.74136,-1.04486 1.37473,-0.91873c0.63333,0.12613 1.04486,0.74136 0.91873,1.37469c-0.12613,0.63336 -1.83099,3.21222 -1.83099,3.21222v0c0,0 -0.58823,-3.03482 -0.46246,-3.66818z" fill="#ffe15a" fill-opacity="1"></path></g><g><title>Path 82</title><path d="M111.97265,55.18616c-0.63333,-0.12613 -1.04489,-0.74136 -0.91873,-1.37473c0.1261,-0.63333 0.74133,-1.04486 1.37469,-0.91873c0.63336,0.12611 3.21222,1.83099 3.21222,1.83099v0c0,0 -3.03485,0.58823 -3.66818,0.46246z" fill="#ffe15a" fill-opacity="1"></path></g><g><title>Path 83</title><path d="M73.44059,45.13699c0.63335,0.12613 1.04486,0.74136 0.91875,1.37471c-0.12611,0.63335 -0.74135,1.04486 -1.37471,0.91875c-0.63333,-0.12611 -3.21219,-1.83101 -3.21219,-1.83101v0c0,0 3.03479,-0.58823 3.66815,-0.46245z" fill="#ffe15a" fill-opacity="1"></path></g><g><title>Path 84</title><path d="M87.47371,84.39816l0.24405,0.03177c-0.29941,0.27994 -0.54312,0.59372 -0.73657,0.91772c-0.42451,-0.03418 -0.80972,-0.06424 -1.11151,-0.07758c0.41595,-0.27173 0.9512,-0.56671 1.60403,-0.87192zM129.37453,54.26301c-0.45667,-0.19209 -0.97858,0.02803 -1.16895,0.48193c0,0.00206 0,0.00206 0,0.00206c-0.00345,0.00853 -0.02121,0.05057 -0.05164,0.12234c-0.67572,1.57843 -2.07367,3.88519 -3.48529,6.05527c1.3149,-4.23245 2.517,-8.75305 2.60074,-9.07092c0.12544,-0.47476 -0.15552,-0.96216 -0.62959,-1.09103c-0.47475,-0.12747 -0.96284,0.14868 -1.09579,0.6214c-0.61354,2.19843 -1.86827,5.09174 -3.02592,7.54105c0.21225,-2.73096 0.25226,-5.26093 0.25497,-5.44412c0.00719,-0.48364 -0.37187,-0.88354 -0.8555,-0.90645c-0.45493,0.01402 -0.8938,0.3459 -0.92969,0.82919c-1.14468,15.74586 -16.29617,22.7896 -17.77136,23.43764c-0.77176,0.0769 -4.36713,0.48193 -7.63025,1.61499c-0.36983,0.12854 -0.68497,0.25739 -0.99872,0.38522c-0.11656,-0.04373 -0.24167,-0.06836 -0.37326,-0.06052c-10.01532,0.72461 -18.00104,-3.38376 -23.74048,-12.1857c-4.33636,-6.65068 -5.69638,-13.63153 -5.70972,-13.70125c-0.09158,-0.48535 -0.55643,-0.7981 -1.04384,-0.7123c-0.48535,0.09229 -0.80424,0.55849 -0.7123,1.04384c0.03622,0.19276 0.633,3.23988 2.27637,7.25018c-2.19879,-3.47093 -3.73105,-7.67572 -4.27042,-9.86562c-0.01093,-0.04373 -0.03896,-0.0769 -0.05536,-0.11722c-0.0253,-0.06187 -0.04649,-0.12408 -0.08374,-0.17773c-0.02632,-0.03795 -0.06085,-0.06564 -0.09195,-0.09879c-0.04887,-0.05161 -0.0957,-0.1022 -0.15552,-0.14082c-0.03418,-0.02222 -0.07246,-0.03316 -0.10971,-0.05058c-0.06598,-0.03076 -0.13057,-0.06119 -0.20406,-0.0752c-0.05093,-0.00992 -0.10289,-0.00342 -0.15587,-0.00446c-0.05365,-0.00067 -0.10423,-0.01434 -0.15927,-0.00478c-0.01196,0.00204 -0.02118,0.01025 -0.03316,0.01299c-0.01161,0.0024 -0.02255,-0.00137 -0.03418,0.00102c-0.04785,0.01161 -0.08443,0.0417 -0.12817,0.0605c-0.05571,0.02426 -0.11279,0.04239 -0.16167,0.07623c-0.0482,0.03314 -0.08408,0.0762 -0.12408,0.11757c-0.03998,0.041 -0.08168,0.07724 -0.11313,0.12476c-0.03178,0.0482 -0.04887,0.10254 -0.07143,0.1562c-0.02153,0.05229 -0.04649,0.1015 -0.05777,0.1579c-0.01161,0.05777 -0.00648,0.11725 -0.00615,0.17773c0,0.04822 -0.01334,0.09435 -0.00479,0.14355c0.00342,0.02121 0.01025,0.04239 0.01401,0.0629v0.00342c0.00104,0.00375 0.0024,0.00888 0.00342,0.013c0.55302,3.25833 1.871,6.63596 3.06284,9.21173c-1.89252,-2.14749 -3.47401,-4.62177 -4.03456,-6.08704c-0.01607,-0.04272 -0.04854,-0.07248 -0.0704,-0.11075c-0.03316,-0.05914 -0.06221,-0.11963 -0.10698,-0.16852c-0.0318,-0.03485 -0.07042,-0.0574 -0.10664,-0.08647c-0.05435,-0.04375 -0.10596,-0.08784 -0.16885,-0.11792c-0.04033,-0.01913 -0.08408,-0.02528 -0.1268,-0.03862c-0.06596,-0.01984 -0.12988,-0.0417 -0.19995,-0.04614c-0.05504,-0.00375 -0.10973,0.01025 -0.16544,0.01743c-0.05161,0.0065 -0.10254,0 -0.15381,0.01607c-0.0099,0.00307 -0.01674,0.01094 -0.02597,0.01436c-0.00957,0.00308 -0.01915,0.00104 -0.02872,0.00479c-0.04854,0.01846 -0.08305,0.05435 -0.12646,0.07997c-0.05092,0.03008 -0.10527,0.05504 -0.14867,0.09399c-0.04445,0.03999 -0.0752,0.08955 -0.11008,0.13707c-0.03314,0.04477 -0.07007,0.08475 -0.09467,0.13466c-0.02563,0.05229 -0.0352,0.10902 -0.0499,0.16542c-0.01471,0.05502 -0.03418,0.10631 -0.03795,0.16406c-0.00409,0.05777 0.01025,0.11554 0.01778,0.17398c0.0065,0.05058 -0.00034,0.10083 0.01538,0.15073c0.97275,3.1377 3.31201,6.87079 5.14471,9.50056c-1.52715,-1.1768 -2.6496,-2.44965 -2.97533,-2.83383c-0.0352,-0.0417 -0.06973,-0.08374 -0.10493,-0.12544c-0.31514,-0.37906 -0.87192,-0.43306 -1.25371,-0.12408c-0.38042,0.3107 -0.44023,0.86989 -0.13261,1.25166c0.01674,0.02119 0.08374,0.10493 0.19585,0.23584c1.3412,1.59584 2.80238,3.08505 4.12616,4.34251l-1.81084,-0.77177c-0.41289,-0.17807 -0.89824,-0.01743 -1.12418,0.37529c-0.22626,0.39307 -0.12407,0.89038 0.23825,1.1628c0.17636,0.13091 3.38309,2.52657 6.15915,3.94261c-0.26181,0.01572 -0.56908,-0.00342 -0.91293,-0.02972c-0.41972,-0.04034 -0.83261,0.2601 -0.93481,0.68597c-0.10048,0.42758 0.12305,0.86441 0.52911,1.03189c0.06836,0.02802 0.91431,0.37698 1.95883,0.74887c-0.2437,0.09946 -0.4375,0.30386 -0.51782,0.56909c-0.12032,0.39648 0.04889,0.82611 0.40845,1.03189c0.09366,0.05435 1.35727,0.77896 2.92099,1.42117c-0.04169,0.06461 -0.07587,0.13434 -0.1015,0.21124c-0.12238,0.37531 0.01743,0.78751 0.34315,1.01276c0.27138,0.18661 6.3434,4.30731 13.43498,4.30731c0.46552,0 0.93584,-0.01743 1.40887,-0.05573c0.49152,-0.0386 0.85928,-0.4696 0.81998,-0.96216c-0.03931,-0.49252 -0.46622,-0.86438 -0.96283,-0.81894c-4.45499,0.36334 -8.74692,-1.30942 -11.29945,-2.58774c0.33701,-0.08237 0.53081,-0.15723 0.57899,-0.17636c0.39375,-0.16064 0.6207,-0.57455 0.54381,-0.99191c-0.0769,-0.41699 -0.43648,-0.72287 -0.86168,-0.73175c-1.03632,-0.02121 -2.47153,-0.5257 -3.70779,-1.06711c0.46689,-0.2338 0.73965,-0.45767 0.76358,-0.47681c0.26898,-0.22525 0.38246,-0.58481 0.29086,-0.92352c-0.09229,-0.33701 -0.37393,-0.59027 -0.71915,-0.646c-0.37973,-0.0629 -0.85312,-0.18527 -1.34872,-0.3353c0.48193,-0.27756 0.68701,-0.5831 0.76563,-0.73865c0.12408,-0.2478 0.1268,-0.53796 0.00786,-0.78748c-0.11963,-0.24951 -0.34727,-0.42963 -0.6183,-0.4874c-0.2338,-0.0506 -0.49869,-0.13605 -0.78477,-0.2478c0.05229,-0.05231 0.10049,-0.11177 0.13945,-0.17979c0.22763,-0.38588 0.13365,-0.88182 -0.21977,-1.15938c-0.01845,-0.01401 -0.7123,-0.55849 -1.76299,-1.46494c0.16681,-0.06119 0.31412,-0.17465 0.42075,-0.32812c0.22525,-0.32471 0.20987,-0.75946 -0.0376,-1.06708c-0.01982,-0.02461 -0.71469,-0.89825 -1.67241,-2.2251c0.31618,0.24539 0.63197,0.49628 0.9478,0.69931c0.14868,0.09433 0.31685,0.14149 0.48364,0.14149c0.22627,0 0.44946,-0.08545 0.62138,-0.25156c0.07076,-0.06837 0.12611,-0.14697 0.16988,-0.23071c0.54242,0.57936 1.1122,1.10538 1.71069,1.55415c0.07791,0.05844 0.17261,0.05742 0.2601,0.08682c0.25362,0.42517 0.51749,0.85106 0.79434,1.27695c5.42874,8.35281 13.08327,12.82693 22.26392,13.09555c-0.84528,0.5134 -1.76299,1.04385 -3.21597,1.60986c-0.31718,0.12375 -0.59744,0.24747 -0.87909,0.37155c-0.13605,0.02664 -0.26352,0.07587 -0.36983,0.16031c-2.53613,1.17407 -3.58614,2.33411 -4.01201,3.14554c-0.4252,0.80664 -0.05844,1.63412 0.46075,2.06375c0.16132,0.13263 0.36673,0.20065 0.57251,0.20065c0.14149,0 0.28299,-0.03146 0.41116,-0.09604c0.31616,-0.15723 0.5274,-0.49084 0.5134,-0.84152c0.03656,-0.03998 0.19208,-0.16919 0.67914,-0.18524c0.35513,-0.02975 1.10263,0.05057 1.9749,0.1203c0.82988,0.06836 1.8252,0.14597 2.88338,0.20029c-0.66205,0.77179 -1.43143,1.66626 -1.43143,1.66626c-0.23105,0.26898 -0.28198,0.64941 -0.12817,0.96899c0.15448,0.32129 0.4874,0.52057 0.83636,0.5079c0.7065,-0.0246 1.18639,-0.0386 1.50153,-0.0451c0.2748,0.35989 0.61215,0.50278 0.82953,0.5585c0.6149,0.15723 1.22774,-0.08887 1.68915,-0.38043c0.34933,0.25156 0.69864,0.35785 0.97549,0.39819c0.62411,0.08545 1.2021,-0.09604 1.62012,-0.30215c0.43304,0.2796 0.85721,0.35104 1.18057,0.35104c0.00443,0 0.00957,0 0.01468,0c0.6976,-0.00342 1.30806,-0.34045 1.73975,-0.67062c0.38179,0.22696 0.74649,0.30011 1.02847,0.31277c0.64017,0.02255 1.17065,-0.22354 1.52338,-0.45428c1.25987,0.25293 2.34576,-0.34042 3.06354,-0.9953c0.32744,0.1904 0.63881,0.23755 0.88696,0.22525c0.63812,-0.02255 1.12416,-0.41049 1.43622,-0.75775c1.42836,0.17261 2.45341,-0.09091 3.04575,-0.79434c0.323,-0.38248 0.45425,-0.81348 0.48981,-1.20654c3.96277,-0.02258 4.32132,-2.18613 4.35037,-2.45343c0.02597,-0.24301 -0.04785,-0.48535 -0.20575,-0.67197c-0.15723,-0.18661 -0.38522,-0.30215 -0.62857,-0.31616l-10.38922,-0.62479c-0.43478,-0.03146 -0.82272,0.2601 -0.92354,0.6846c-0.00206,0.00684 -0.17909,0.66684 -0.73315,1.19458c-0.7458,0.71198 -1.94652,1.08795 -3.25252,1.2872c0.00478,-0.11963 -0.01196,-0.2413 -0.05777,-0.36023c-0.17807,-0.46075 -0.69659,-0.68463 -1.15594,-0.51135c-2.14478,0.83228 -5.61743,0.72769 -8.33403,0.53867c0.41664,-0.34042 0.91841,-0.67776 1.31932,-0.89789c0.33873,-0.18661 0.52057,-0.56909 0.44879,-0.94952c-0.05197,-0.27652 -0.25191,-0.46893 -0.49323,-0.59268c0.75537,-0.38144 1.37473,-0.74988 1.96225,-1.10809c1.01993,-0.62482 1.98346,-1.21371 3.73825,-1.82281c3.38719,-1.17679 7.30725,-1.53467 7.34656,-1.53842c0.08887,-0.00717 0.17636,-0.02972 0.25908,-0.0629c0.13945,-0.05774 11.19655,-4.68976 16.40587,-15.37775c-0.06836,0.323 -0.14151,0.61832 -0.22113,0.87637c-0.13605,0.44023 0.08372,0.90985 0.5079,1.08759c0.32813,0.13809 0.70102,0.06631 0.95361,-0.16747c-0.32916,0.86781 -0.62686,1.5504 -0.86987,1.9537c-0.2478,0.41049 -0.12817,0.94301 0.27069,1.20825c0.09366,0.06117 0.19379,0.10289 0.29669,0.12749c-0.40332,0.59027 -0.81212,1.14877 -1.21988,1.66045c-0.27139,0.34044 -0.25566,0.82613 0.02802,1.14742c-0.69998,0.73315 -1.32069,1.33743 -1.79236,1.72162c-0.30795,0.24951 -0.40845,0.66684 -0.26695,1.02332c-0.45493,0.26013 -0.82851,0.44366 -1.0876,0.52194c-0.43475,0.13089 -0.70171,0.56909 -0.61966,1.01614c0.04272,0.23584 0.17532,0.43478 0.35855,0.56567c-0.54654,0.14664 -1.14468,0.28815 -1.7941,0.41699c-0.36572,0.07315 -0.64804,0.36505 -0.70786,0.73315c-0.05914,0.36847 0.11552,0.7352 0.43886,0.9201c0.02803,0.01575 0.33325,0.18869 0.80083,0.3876c-1.72949,0.69659 -4.81728,1.60645 -9.88441,2.1058c-0.49081,0.04889 -0.85039,0.48743 -0.8015,0.97791c0.04785,0.49078 0.47235,0.83124 0.97787,0.80322c9.61882,-0.95157 12.58902,-3.35919 12.71037,-3.4624c0.27754,-0.23242 0.38759,-0.61115 0.27754,-0.9567c-0.07315,-0.22867 -0.2338,-0.41357 -0.44023,-0.52057c3.07309,-0.96729 4.39243,-2.03778 4.46147,-2.09521c0.33701,-0.27957 0.42178,-0.76288 0.19995,-1.14194c-0.22354,-0.37906 -0.68874,-0.54312 -1.09479,-0.37906c-0.11417,0.04373 -0.29668,0.08887 -0.52739,0.13434c2.06239,-1.41232 4.2516,-3.0943 5.21445,-3.84488c0.16919,-0.12543 0.32301,-0.24643 0.45836,-0.35991c0.37392,-0.3141 0.42621,-0.86987 0.11757,-1.24825c-0.30624,-0.377 -0.8644,-0.44022 -1.24687,-0.13808c-0.13945,0.11006 -0.28473,0.22353 -0.43477,0.34044c-0.44432,0.33017 -1.01274,0.70374 -1.63277,1.08759c2.34062,-2.65747 4.69696,-5.53847 5.36996,-6.36595c0.06119,-0.0752 0.12134,-0.15004 0.18253,-0.22523c0.30896,-0.38419 0.24881,-0.94644 -0.13535,-1.25543c-0.38522,-0.31412 -0.94815,-0.24951 -1.25645,0.13263l-0.00206,0.00204l-0.00069,0.00206c-0.01674,0.01913 -0.09227,0.11348 -0.21977,0.27071c-0.70512,0.86063 -1.44751,1.69394 -2.17998,2.4722c2.38438,-4.32132 4.18974,-8.57498 4.4543,-9.20526c0.00958,-0.02255 0.01846,-0.0451 0.02802,-0.06836c0.18936,-0.4521 -0.02597,-0.97607 -0.4819,-1.16475z" fill="#ffe15a" fill-opacity="1"></path></g></g></g></g></svg>