<svg xmlns="http://www.w3.org/2000/svg" width="231" height="51" viewBox="0 0 231 51"><defs><linearGradient id="qd7oa" x1="230.08" x2="243.63" y1="358.31" y2="344.77" gradientUnits="userSpaceOnUse"><stop offset="0" stop-color="#f6f2b8"/><stop offset=".42" stop-color="#dfa857"/><stop offset=".76" stop-color="#f6f2b8"/><stop offset="1" stop-color="#b78649"/></linearGradient><linearGradient id="qd7ob" x1="243.35" x2="253.9" y1="360.86" y2="350.32" gradientUnits="userSpaceOnUse"><stop offset="0" stop-color="#f6f2b8"/><stop offset=".42" stop-color="#dfa857"/><stop offset=".76" stop-color="#f6f2b8"/><stop offset="1" stop-color="#b78649"/></linearGradient><linearGradient id="qd7oc" x1="257.16" x2="267.97" y1="362.26" y2="351.46" gradientUnits="userSpaceOnUse"><stop offset="0" stop-color="#f6f2b8"/><stop offset=".42" stop-color="#dfa857"/><stop offset=".76" stop-color="#f6f2b8"/><stop offset="1" stop-color="#b78649"/></linearGradient><linearGradient id="qd7od" x1="273.7" x2="286.17" y1="363.89" y2="351.42" gradientUnits="userSpaceOnUse"><stop offset="0" stop-color="#f6f2b8"/><stop offset=".42" stop-color="#dfa857"/><stop offset=".76" stop-color="#f6f2b8"/><stop offset="1" stop-color="#b78649"/></linearGradient><linearGradient id="qd7oe" x1="294.09" x2="308.5" y1="363.1" y2="348.68" gradientUnits="userSpaceOnUse"><stop offset="0" stop-color="#f6f2b8"/><stop offset=".42" stop-color="#dfa857"/><stop offset=".76" stop-color="#f6f2b8"/><stop offset="1" stop-color="#b78649"/></linearGradient><linearGradient id="qd7of" x1="101.17" x2="124.02" y1="385.36" y2="372.17" gradientUnits="userSpaceOnUse"><stop offset="0" stop-color="#f6f2b8"/><stop offset=".42" stop-color="#dfa857"/><stop offset=".76" stop-color="#f6f2b8"/><stop offset="1" stop-color="#b78649"/></linearGradient><linearGradient id="qd7og" x1="94.38" x2="128.58" y1="378.51" y2="358.77" gradientUnits="userSpaceOnUse"><stop offset="0" stop-color="#f6f2b8"/><stop offset=".42" stop-color="#dfa857"/><stop offset=".76" stop-color="#f6f2b8"/><stop offset="1" stop-color="#b78649"/></linearGradient><linearGradient id="qd7oh" x1="90.64" x2="116.37" y1="385.03" y2="340.48" gradientUnits="userSpaceOnUse"><stop offset="0" stop-color="#f6f2b8"/><stop offset=".42" stop-color="#dfa857"/><stop offset=".76" stop-color="#f6f2b8"/><stop offset="1" stop-color="#b78649"/></linearGradient><linearGradient id="qd7oi" x1="80.52" x2="103.79" y1="382.58" y2="342.27" gradientUnits="userSpaceOnUse"><stop offset="0" stop-color="#f6f2b8"/><stop offset=".42" stop-color="#dfa857"/><stop offset=".76" stop-color="#f6f2b8"/><stop offset="1" stop-color="#b78649"/></linearGradient></defs><g><g><g><g><g><path fill="#100e0e" d="M69.892 42.69v.64h-5.568V33.154h.768v9.536z"/></g><g><path fill="#100e0e" d="M76.292 36.162v7.104h-.384c-.128 0-.192-.064-.192-.192l-.064-1.088c-.32.384-.704.768-1.152.96a2.805 2.805 0 0 1-1.472.384c-.384 0-.768-.064-1.024-.192-.32-.128-.512-.32-.768-.512a3.448 3.448 0 0 1-.448-.832c-.128-.32-.128-.704-.128-1.088v-4.544h.704v4.544c0 .64.128 1.216.448 1.6.32.384.768.576 1.408.576.448 0 .896-.128 1.28-.384a5.098 5.098 0 0 0 1.088-.96v-5.376z"/></g><g><path fill="#100e0e" d="M83.909 43.33h-.64c-.064 0-.128 0-.128-.064-.064-.064-.064-.064-.064-.128L80.9 40.002a.485.485 0 0 1-.128.256l-2.049 2.88-.128.128c-.064.064-.064.064-.128.064h-.64l2.625-3.648-2.497-3.456h.64c.064 0 .128 0 .128.064s.064.064.064.128l2.113 3.008c0-.064 0-.064.064-.128 0-.064.064-.064.064-.128l1.984-2.752c0-.064.064-.064.064-.128.064 0 .064-.064.128-.064h.64l-2.496 3.456z"/></g><g><path fill="#100e0e" d="M90.885 36.162v7.104h-.384c-.128 0-.192-.064-.192-.192l-.064-1.088c-.32.384-.704.768-1.152.96a2.805 2.805 0 0 1-1.472.384c-.384 0-.768-.064-1.024-.192-.32-.128-.512-.32-.768-.512a3.448 3.448 0 0 1-.448-.832c-.128-.32-.128-.704-.128-1.088v-4.544h.704v4.544c0 .64.128 1.216.448 1.6.32.384.768.576 1.408.576.448 0 .896-.128 1.28-.384a5.097 5.097 0 0 0 1.088-.96v-5.376z"/></g><g><path fill="#100e0e" d="M93.893 37.89a4.26 4.26 0 0 1 .384-.768c.128-.256.32-.448.512-.576.192-.128.384-.256.64-.384.256-.064.448-.128.768-.128.128 0 .32 0 .449.064.128 0 .256.064.384.128l-.064.448a.138.138 0 0 1-.128.128c-.064 0-.128 0-.256-.064s-.256-.064-.449-.064a2.3 2.3 0 0 0-.704.128 1.511 1.511 0 0 0-.576.384c-.192.192-.32.384-.448.64s-.256.512-.32.832v4.608h-.704v-7.104h.384c.064 0 .128 0 .192.064s.064.064.064.192z"/></g><g><path fill="#100e0e" d="M104.07 36.162l-4.096 9.409c0 .064-.064.128-.128.192s-.128.064-.192.064h-.448l1.28-2.817-3.008-6.848h.576c.064 0 .128 0 .192.064s.064.064.064.128l2.432 5.568c0 .064.064.128.064.192s.064.128.064.256c0-.064.064-.128.064-.256 0-.064.064-.128.064-.192l2.368-5.568c0-.064.064-.064.128-.128.064 0 .064-.064.128-.064z"/></g><g><path fill="#100e0e" d="M109.83 32.898V43.33h-.704V32.898z"/></g><g><path fill="#100e0e" d="M112.966 36.162v7.104h-.704v-7.104zm.32-2.432c0 .064 0 .192-.064.256s-.064.128-.128.192-.128.128-.192.128c-.064.064-.128.064-.256.064-.064 0-.192 0-.256-.064s-.128-.064-.192-.128-.128-.128-.128-.192c-.064-.064-.064-.128-.064-.256s0-.192.064-.256.064-.128.128-.192.128-.128.192-.128c.064-.064.128-.064.256-.064.064 0 .192 0 .256.064s.128.064.192.128.128.128.128.192c.064.064.064.192.064.256z"/></g><g><path fill="#100e0e" d="M115.847 43.33v-6.4l-1.024-.064c-.128 0-.192-.064-.192-.192v-.256h1.216v-.896c0-.384.064-.768.128-1.088.064-.32.256-.576.448-.768.192-.192.448-.384.704-.448.256-.128.576-.128.896-.128.128 0 .32 0 .448.064.128 0 .256.064.384.128v.32c0 .064 0 .064-.064.064h-.64c-.256 0-.448.064-.64.128a1.394 1.394 0 0 0-.512.32c-.128.128-.256.384-.32.576a3.776 3.776 0 0 0-.128.896v.896h2.304v.512h-2.304v6.4h-.704z"/></g><g><path fill="#100e0e" d="M120.263 39.042c.064-.384.128-.704.256-1.024.128-.32.32-.576.512-.768.256-.256.448-.384.768-.512.256-.128.576-.192.96-.192.32 0 .64.064.896.192s.512.32.704.512c.192.192.32.448.448.768s.192.64.192 1.024zm0 .384h5.12c.064 0 .128 0 .128-.064.064 0 .064-.064.064-.192 0-.512-.064-.96-.192-1.344a2.41 2.41 0 0 0-.576-.96 2.685 2.685 0 0 0-.896-.576 2.99 2.99 0 0 0-1.088-.192c-.512 0-.96.064-1.344.256a2.274 2.274 0 0 0-1.024.704c-.256.256-.512.64-.64 1.088a4.99 4.99 0 0 0-.192 1.408c0 .576.128 1.152.256 1.6.128.512.384.896.64 1.216.256.32.64.576 1.024.768.384.192.832.256 1.344.256.256 0 .512 0 .768-.064l.768-.192c.256-.064.448-.192.64-.32s.32-.256.448-.384l-.192-.256c0-.064-.064-.064-.128-.064s-.128.064-.256.128a3.671 3.671 0 0 0-.448.256c-.128.064-.384.192-.64.256-.32.064-.576.128-.96.128a2.99 2.99 0 0 1-1.088-.192 2.08 2.08 0 0 1-.832-.64 3.826 3.826 0 0 1-.512-1.024c-.128-.384-.192-.896-.192-1.408v-.128z"/></g><g><path fill="#100e0e" d="M131.207 38.786h3.329v.576h-3.329z"/></g><g><path fill="#100e0e" d="M141.64 42.754v-4.352h2.368c.896 0 1.536.128 1.984.512.448.32.64.896.64 1.6 0 .704-.192 1.28-.64 1.664-.448.384-1.088.576-1.984.576zm-.128-4.992V33.73h5.44v-.576h-6.144v10.112h3.072c.576 0 1.024-.064 1.472-.192.448-.128.832-.32 1.088-.576.256-.256.512-.512.64-.896.192-.384.256-.768.256-1.216a2.99 2.99 0 0 0-.192-1.088c-.128-.32-.384-.576-.64-.832a3.826 3.826 0 0 0-1.024-.512c-.384-.128-.896-.192-1.472-.192z"/></g><g><path fill="#100e0e" d="M154.697 36.162l-4.096 9.409c0 .064-.064.128-.128.192s-.128.064-.192.064h-.512l1.28-2.817-3.009-6.848h.576c.064 0 .128 0 .192.064s.064.064.064.128l2.433 5.568c0 .064.064.128.064.192s.064.128.064.256c0-.064.064-.128.064-.256 0-.064.064-.128.064-.192l2.368-5.568c0-.064.064-.064.128-.128s.064-.064.128-.064z"/></g><g><path fill="#100e0e" d="M160.585 42.882h-4.48c.192-.192.32-.384.512-.704.128-.256.32-.64.448-1.152.128-.512.256-1.088.384-1.792s.192-1.536.256-2.496h2.88v6.08zm1.984-.192h-1.408v-6.592h-4.096c-.064.96-.128 1.728-.192 2.432-.128.704-.192 1.28-.32 1.792a9.278 9.278 0 0 1-.384 1.216c-.128.32-.256.576-.448.768-.192.192-.32.32-.512.384s-.32.128-.512.128h-.256v3.073h.448c.064 0 .128 0 .128-.064.064 0 .064-.064.064-.128V43.33h6.848v2.56h.448c.128 0 .192-.127.192-.255v-2.817z"/></g><g><path fill="#100e0e" d="M164.681 42.818v-3.136h1.856c.32 0 .64.064.897.128.256.064.448.128.576.32.128.192.256.32.32.512s.128.384.128.576c0 .256-.064.448-.128.64a1.394 1.394 0 0 1-.32.512c-.128.128-.32.256-.576.32-.257.064-.513.128-.833.128zm-.064-3.648v-3.008h-.64v7.104h2.56c.385 0 .769 0 1.089-.128.32-.128.576-.256.768-.448.256-.128.384-.384.512-.64s.192-.512.192-.832c0-.256-.064-.512-.128-.768a2.299 2.299 0 0 0-.448-.64c-.192-.192-.448-.32-.768-.448s-.705-.192-1.217-.192z"/></g><g><path fill="#100e0e" d="M177.226 42.754h-1.856v-3.008h1.92c.384 0 .704.064.896.128.192.064.448.192.576.32.128.128.256.256.32.448s.128.384.128.576c0 .256-.064.448-.128.64a.996.996 0 0 1-.384.512c-.192.128-.384.256-.64.32s-.512.128-.832.128zm-1.856-6.08v.064zm0 .064h1.664c.32 0 .576.064.832.128s.448.128.576.256c.128.128.256.256.32.384s.064.256.064.448-.064.384-.128.576c-.128.192-.256.32-.384.448-.192.128-.384.256-.576.32a2.3 2.3 0 0 1-.704.128h-1.664zm-.704-.576v7.104h2.56c.384 0 .704-.064 1.024-.128.32-.064.64-.192.832-.384.192-.192.384-.384.512-.64s.192-.512.192-.832c0-.448-.128-.832-.448-1.152-.256-.32-.768-.512-1.408-.576.256 0 .512-.128.704-.256.192-.128.32-.256.448-.448s.192-.32.256-.512.064-.384.064-.512c0-.256-.064-.448-.128-.64a.995.995 0 0 0-.384-.512c-.128-.192-.384-.32-.704-.384a5.076 5.076 0 0 0-1.088-.128z"/></g><g><path fill="#100e0e" d="M191.37 36.738h-3.007v6.592h-.704v-6.592h-3.009v-.512h6.72z"/></g><g><path fill="#100e0e" d="M193.419 37.954c.32-.448.64-.768 1.024-1.024a2.308 2.308 0 0 1 1.28-.384c.704 0 1.28.256 1.664.768.384.512.576 1.28.576 2.368 0 .448-.064.896-.192 1.28s-.32.768-.512 1.024-.448.512-.768.64c-.32.192-.64.256-1.088.256-.192 0-.384 0-.576-.064-.192-.064-.32-.128-.512-.192-.128-.064-.256-.192-.448-.32s-.32-.32-.448-.512zm-.128-1.6c0-.128-.064-.192-.192-.192h-.384v9.6h.704v-3.456c.256.32.512.576.896.768.384.192.768.256 1.28.256s.96-.064 1.344-.256c.384-.192.704-.448.96-.768s.448-.704.576-1.152c.128-.448.192-.96.192-1.472 0-1.216-.192-2.176-.704-2.752-.512-.576-1.152-.896-2.048-.896-.512 0-.96.128-1.408.384a4.078 4.078 0 0 0-1.088 1.024z"/></g><g><path fill="#100e0e" d="M200.907 39.042c.064-.384.128-.704.256-1.024.128-.32.32-.576.512-.768.256-.256.448-.384.769-.512.256-.128.576-.192.96-.192.32 0 .64.064.896.192s.512.32.704.512c.192.192.32.448.448.768s.192.64.192 1.024zm0 .384h5.12c.065 0 .129 0 .129-.064.064 0 .064-.064.064-.192 0-.512-.064-.96-.192-1.344a2.41 2.41 0 0 0-.576-.96 2.685 2.685 0 0 0-.896-.576 2.99 2.99 0 0 0-1.088-.192c-.513 0-.96.064-1.345.256a2.274 2.274 0 0 0-1.024.704c-.256.256-.512.64-.64 1.088a4.992 4.992 0 0 0-.192 1.408c0 .576.128 1.152.256 1.6.128.512.384.896.64 1.216.256.32.64.576 1.024.768.384.192.833.256 1.345.256.256 0 .512 0 .768-.064l.768-.192c.256-.064.448-.192.64-.32s.32-.256.448-.384l-.192-.256c0-.064-.064-.064-.128-.064s-.128.064-.256.128a3.671 3.671 0 0 0-.448.256c-.128.064-.384.192-.64.256-.32.064-.576.128-.96.128a2.99 2.99 0 0 1-1.089-.192 2.08 2.08 0 0 1-.832-.64 3.826 3.826 0 0 1-.512-1.024c-.128-.384-.192-.896-.192-1.408v-.128z"/></g><g><path fill="#100e0e" d="M213.772 36.162v7.104h-.704v-3.584h-4.224v3.584h-.704v-7.104h.704v3.008h4.224v-3.008z"/></g><g><path fill="#100e0e" d="M221.197 42.882h-4.48c.191-.192.32-.384.511-.704.128-.256.32-.64.448-1.152.128-.512.256-1.088.384-1.792s.192-1.536.256-2.496h2.88v6.08zm1.984-.192h-1.344v-6.592h-4.097c-.064.96-.128 1.728-.192 2.432-.128.704-.192 1.28-.32 1.792a9.287 9.287 0 0 1-.384 1.216c-.128.32-.256.576-.448.768-.192.192-.32.32-.512.384s-.32.128-.512.128h-.256v3.073h.448c.064 0 .128 0 .128-.064.064 0 .064-.064.064-.128V43.33h6.849v2.56h.384c.128 0 .192-.127.192-.255v-2.817z"/></g><g><path fill="#100e0e" d="M224.845 39.042c.064-.384.128-.704.256-1.024.128-.32.32-.576.512-.768.256-.256.448-.384.768-.512.256-.128.576-.192.96-.192.32 0 .64.064.896.192s.512.32.704.512c.192.192.32.448.448.768s.192.64.192 1.024zm0 .384h5.12c.064 0 .128 0 .128-.064.064 0 .064-.064.064-.192 0-.512-.064-.96-.192-1.344a2.41 2.41 0 0 0-.576-.96 2.685 2.685 0 0 0-.896-.576 2.99 2.99 0 0 0-1.088-.192c-.512 0-.96.064-1.344.256a2.274 2.274 0 0 0-1.024.704c-.256.256-.512.64-.64 1.088a4.99 4.99 0 0 0-.192 1.408c0 .576.128 1.152.256 1.6.128.512.384.896.64 1.216.256.32.64.576 1.024.768.384.192.832.256 1.344.256.256 0 .512 0 .768-.064l.768-.192c.256-.064.448-.192.64-.32s.32-.256.448-.384l-.192-.256c0-.064-.064-.064-.128-.064s-.128.064-.256.128-.256.128-.448.256c-.128.064-.384.192-.64.256-.32.064-.576.128-.96.128a2.99 2.99 0 0 1-1.088-.192 2.079 2.079 0 0 1-.832-.64 3.825 3.825 0 0 1-.512-1.024c-.128-.384-.192-.896-.192-1.408v-.128z"/></g></g><g><g><g><path fill="url(#qd7oa)" d="M169.738 6.72c.576 0 .96.448.96 1.024 0 .576-.448.96-.96.96h-6.4v15.617c0 .576-.449 1.088-1.089 1.088h-.064c-.576 0-1.024-.448-1.024-.96V8.704h-6.4c-.576 0-1.024-.448-1.024-.96 0-.576.448-1.024 1.024-1.024z"/></g><g><path fill="url(#qd7ob)" d="M173.706 12.8c.896-1.92 2.624-2.431 4.288-2.431.576-.064 1.024.32 1.088.896.064.576-.32 1.024-.896 1.088h-.256c-2.944 0-4.224 2.368-4.224 5.248v6.464c0 .576-.448 1.024-1.024 1.024h-.064c-.512.064-1.024-.32-1.088-.896V11.33c0-1.28 2.048-1.408 2.048 0z"/></g><g><path fill="url(#qd7oc)" d="M186.315 12.353a6.5 6.5 0 0 1 3.136 0c2.24.576 3.776 2.56 3.904 4.864h-10.88c.063-2.304 1.6-4.288 3.84-4.864zm3.648-1.92a7.533 7.533 0 0 0-4.288.064c-5.377 1.536-6.72 8.128-3.585 12.224 1.472 1.664 3.585 2.624 5.825 2.56 1.856.128 3.712-.512 5.12-1.728 1.088-1.152-.384-2.304-1.408-1.408a5.866 5.866 0 0 1-3.84 1.216c-2.56.064-4.8-1.792-5.249-4.352h11.329c1.152 0 1.472-.704 1.408-1.344-.064-3.712-2.048-6.336-5.312-7.232z"/></g><g><path fill="url(#qd7od)" d="M211.02 16.577a4.453 4.453 0 0 0-4.48-4.48c-3.008 0-5.377 2.432-5.44 5.44v6.656c.063.512-.32.96-.833 1.024h-.192c-.512.064-1.024-.32-1.088-.832V11.33c0-.576.448-1.024 1.024-1.024.576 0 1.024.448 1.024 1.024v1.792c1.025-2.112 3.265-3.008 5.505-3.008 3.328 0 6.528 2.304 6.528 6.464v7.616c.064.512-.32.96-.832 1.024h-.192c-.512.064-1.024-.32-1.024-.832v-7.808z"/></g><g><path fill="url(#qd7oe)" d="M228.813 18.945c0 2.816-2.24 4.48-4.864 4.544-1.088-.128-2.112-.512-2.944-1.152-1.409-1.216-2.24-3.072-2.113-4.928a8.308 8.308 0 0 1 .448-2.112c.897-1.92 2.817-3.136 4.929-3.072 2.56.064 4.544 1.856 4.544 4.416zm-4.672-8.704h-.384c-3.904.064-7.105 3.264-7.04 7.168-.065 3.328 1.535 6.208 4.672 7.488.896.32 1.792.512 2.752.512a5.33 5.33 0 0 0 4.736-2.56v1.6c.064.448.448.832.96.768h.192c.512-.064.96-.512.896-1.024V6.784c0-1.344-2.112-1.344-2.112 0v5.76c-.896-1.471-2.752-2.303-4.672-2.303z"/></g></g><g><g><path fill="#25272e" d="M72.388 25.345c-5.12-.128-9.152-4.288-9.024-9.408v-.192c.128-4.416 3.2-8.513 7.616-9.217 2.816-.448 6.272.384 8.256 2.56.449.577-.256 1.153-.704.64-1.792-1.984-4.864-2.688-7.424-2.24-4.032.64-6.72 4.353-6.848 8.32-.128 4.61 3.52 8.513 8.128 8.641a8.066 8.066 0 0 0 6.592-3.2v-4.736h-6.144c-.256 0-.384-.256-.384-.448s.192-.384.384-.384h6.465c.384 0 .512.256.512.576v5.12c0 .256-.064.448-.192.64-1.665 2.048-4.353 3.392-7.233 3.328z"/></g><g><path fill="#25272e" d="M84.997 24.833a.505.505 0 0 1-.512.512c-.256 0-.512-.192-.512-.448V6.72c0-.256.256-.512.512-.512s.448.192.512.512z"/></g><g><path fill="#25272e" d="M94.341 11.393c1.216-.32 2.497-.32 3.649.064 4.48 1.152 6.08 7.104 3.136 10.624-.128.192-.32.32-.512.512-2.688 2.496-6.913 2.24-9.345-.512-2.944-3.52-1.408-9.472 3.072-10.688zM90.437 22.72l.64.64c3.136 2.816 8 2.56 10.817-.64 1.28-1.536 1.92-3.52 1.728-5.504-.192-3.136-2.304-5.888-5.312-6.784a8.365 8.365 0 0 0-4.353 0c-3.072.896-4.992 3.712-5.248 6.784-.192 1.984.448 3.968 1.728 5.504z"/></g><g><path fill="#25272e" d="M111.43 23.81c-1.856-.897-3.008-2.689-3.008-4.737v-2.496a5.566 5.566 0 0 1 5.568-5.312c2.497-.128 4.865 1.344 5.889 3.648.32.768.512 1.664.512 2.496.128 2.24-.832 4.352-2.56 5.76a6.383 6.383 0 0 1-3.52 1.28c-1.025 0-1.985-.192-2.88-.64zm9.92-6.401c.065-2.944-1.663-5.568-4.287-6.656a6.42 6.42 0 0 0-3.073-.576c-2.368.064-4.608 1.216-5.568 3.456V6.656c-.064-.256-.256-.448-.512-.448h-.064c-.256 0-.448.256-.448.512v18.05c0 .255.256.447.512.447h.064c.256 0 .384-.256.384-.512V21.89a4.912 4.912 0 0 0 2.112 2.56c1.92 1.152 4.289 1.28 6.337.448 3.072-1.28 4.608-4.096 4.544-7.488z"/></g><g><path fill="#25272e" d="M137.224 19.01c0 2.047-1.152 3.84-2.944 4.735a5.95 5.95 0 0 1-6.465-.64 6.492 6.492 0 0 1-2.56-5.76c0-.832.192-1.728.512-2.496 1.024-2.304 3.392-3.776 5.888-3.648.897 0 1.729.192 2.56.576 1.857.896 3.009 2.688 3.009 4.736zm-5.504-8.833c-1.089 0-2.113.192-3.2.512-2.689 1.088-4.289 3.776-4.353 6.656-.064 3.392 1.472 6.208 4.608 7.488 2.112.832 4.417.704 6.337-.448.96-.64 1.728-1.6 2.112-2.688v3.008a.558.558 0 0 0 .512.384h.064c.256 0 .448-.256.448-.512V10.753c0-.256-.256-.448-.512-.448h-.064c-.256.064-.384.256-.384.512v2.944a5.475 5.475 0 0 0-2.112-2.688c-1.088-.576-2.24-.896-3.456-.896z"/></g><g><path fill="#25272e" d="M143.944 24.833a.505.505 0 0 1-.512.512c-.256 0-.512-.192-.512-.448V6.72c0-.256.256-.512.512-.512s.448.192.512.512z"/></g></g></g><g><g><path fill="url(#qd7of)" d="M48.323 31.042s-1.92 13.953-19.905 18.305"/></g><g><path fill="url(#qd7og)" d="M48.323 9.857S32.962 13.313 26.69 31.042c-1.665 6.208-2.56 12.48-.833 18.88 0 0-1.024-6.912 4.737-14.08 5.76-7.168 18.56-8.192 18.56-8.192s2.56-6.657-.831-17.793z"/></g><g><path fill="url(#qd7oh)" d="M23.233 49.987s-4.288-19.073 8.193-32.002c4.672-4.672 11.392-8.704 11.392-8.704L39.554 0S26.818 6.336 21.57 20.61c-5.248 14.272-.064 27.52 1.664 29.377z"/></g><g><path fill="url(#qd7oi)" d="M9.409 8a26.537 26.537 0 0 1 11.904-4.928c-1.472.512-2.816 1.216-4.096 2.048a14.389 14.389 0 0 0-4.416 5.185C10.497 9.345 9.665 8.385 9.409 8zm13.184-4.8c-.768.832-1.408 1.792-1.92 2.752a20.998 20.998 0 0 0-1.152 3.905c-.128.768-.256 1.536-.384 2.176a31.269 31.269 0 0 1-5.952-1.536c1.024-1.985 2.496-3.713 4.288-4.993 1.6-1.024 3.328-1.856 5.12-2.304zM9.473 19.585c-.064.768-.192 1.472-.256 2.112-.192 2.048-.32 4.16-.192 6.209C2.56 26.818.64 25.153.128 24.386c.256-2.88 1.088-5.697 2.368-8.321.512.768 2.176 2.304 6.977 3.52zm.96 17.345c-6.209-.896-8.385-2.112-9.089-2.688-.832-2.24-1.216-4.608-1.28-7.04C0 27.074 0 27.01 0 26.882v-1.857c.96.896 3.264 2.305 9.025 3.265.064.896.128 1.792.256 2.688a30.602 30.602 0 0 0 1.152 5.952zm4.288 8.449c-3.072-.448-6.337-1.088-7.04-1.729l-.577-.576c-2.432-2.176-4.352-4.928-5.504-8 1.152.64 3.712 1.664 9.025 2.432a24.822 24.822 0 0 0 1.472 3.584 36.577 36.577 0 0 0 2.624 4.289zm6.4 4.992c-4.544-.704-8.832-2.624-12.352-5.632 2.112.512 4.224.96 6.4 1.216.96 1.088 2.048 1.984 3.2 2.752.768.448 1.536.832 2.304 1.152l.192.064h.128c.064.128.128.256.128.448zm-.384-1.024a20.73 20.73 0 0 1-2.048-1.088 13.162 13.162 0 0 1-2.688-2.24c1.792.256 3.2.384 3.52.448.384.896.768 1.856 1.216 2.88zm-3.392-11.2a42.149 42.149 0 0 0 1.92 7.808c-.96-.064-2.368-.256-3.84-.448-1.152-1.408-2.176-2.945-2.944-4.609-.512-1.088-1.024-2.176-1.408-3.328 1.728.256 3.776.448 6.08.64.064 0 .128 0 .192-.064zm-.192-8.961c-.256 2.816-.192 5.696.128 8.512h-.064c-2.432-.192-4.48-.384-6.272-.64-.576-1.984-1.024-4.032-1.216-6.08-.128-.832-.192-1.664-.256-2.496 2.56.32 5.12.576 7.68.704zm1.152-8.32c-.064.96-.064 1.791-.064 2.367 0 .064.064.064.064.128-.512 1.728-.832 3.52-1.024 5.313a77.374 77.374 0 0 1-7.744-.768 33.576 33.576 0 0 1 .192-6.209c.064-.576.128-1.28.256-2.048 2.752.64 5.504 1.024 8.32 1.216zm-5.376-9.921zm0 0a31.07 31.07 0 0 0 6.144 1.6c-.192.896-.256 1.664-.32 2.304a65.856 65.856 0 0 0-.448 5.312v.256c-2.752-.128-5.504-.576-8.256-1.152.448-2.432 1.152-4.8 2.24-7.04.192-.384.384-.832.64-1.28zm-.448-.192c-.256.448-.448.896-.64 1.28-1.088 2.24-1.856 4.608-2.24 7.04-5.313-1.344-6.657-3.072-6.849-3.52 1.536-2.816 3.712-5.312 6.273-7.297.32.513 1.216 1.537 3.456 2.497zm6.464 10.176l-.192.768c.064-.256.064-.512.064-.768h.128c.064 0 .064 0 0 0zm.64-8.384zm0 0c.96.192 1.984.32 3.072.32-1.408 2.432-2.624 4.992-3.52 7.616-.064 0-.128-.064-.192-.064h-.128v-.32c.128-1.472.192-3.136.448-5.248.128-.64.192-1.408.32-2.304zM26.37 7.36a55.818 55.818 0 0 0-3.52 5.12c-1.152-.127-2.24-.255-3.2-.383a14.17 14.17 0 0 1 .384-2.176c.256-1.28.64-2.56 1.152-3.777.576-1.152 1.344-2.176 2.24-3.136 1.536 1.024 2.624 2.56 2.944 4.352zm3.52-3.84l-.96.96h-.063c-.128-.064-2.048-1.024-3.649-1.6 1.6 0 3.137.192 4.673.64zm-1.343 1.344c-.512.576-1.088 1.28-1.792 2.112-.32-1.472-1.153-2.816-2.305-3.84 1.408.512 2.817 1.088 4.097 1.728z"/></g></g></g></g></g></svg>