<svg xmlns="http://www.w3.org/2000/svg" width="180" height="118" viewBox="0 0 180 118"><g><g><g><path fill="#ff4b55" d="M176.357 117.426H3.309a3.09 3.09 0 0 1-3.09-3.09V3.09A3.09 3.09 0 0 1 3.309 0h173.048a3.09 3.09 0 0 1 3.09 3.09v111.246a3.09 3.09 0 0 1-3.09 3.09z"/></g><g><g><path fill="#f5f5f5" d="M88.949 48.125l4.843 6.336 7.564-2.532a.464.464 0 0 1 .529.704l-4.53 6.565 4.746 6.41a.464.464 0 0 1-.506.721l-7.643-2.279-4.63 6.494a.464.464 0 0 1-.843-.258l-.194-7.974-7.607-2.397a.464.464 0 0 1-.014-.88l7.523-2.649-.071-7.975a.464.464 0 0 1 .833-.286z"/></g><g><path fill="#f5f5f5" d="M62.163 83.448c-13.65 0-24.723-11.073-24.723-24.736 0-13.637 11.073-24.735 24.723-24.735 5.079 0 9.762 1.562 13.665 4.205.598.405 1.28-.38.78-.9-5.834-6.065-14.09-9.765-23.243-9.452-15.727.537-28.746 13.146-29.751 28.849-1.15 17.987 13.092 32.935 30.824 32.935 8.735 0 16.585-3.651 22.191-9.49.495-.516-.188-1.29-.78-.888a24.27 24.27 0 0 1-13.686 4.212z"/></g></g></g></g></svg>