<svg xmlns="http://www.w3.org/2000/svg" width="32" height="32" viewBox="0 0 32 32"><g><g><path fill="#67c15e" d="M11.351 8.002c.38.917 1.306 3.177 1.417 3.408.11.232.222.547.065.853-.148.315-.278.454-.51.722-.231.269-.453.472-.685.76-.213.25-.453.518-.185.981.269.454 1.194 1.964 2.556 3.177 1.759 1.565 3.185 2.065 3.694 2.278.38.158.833.12 1.111-.176.352-.38.787-1.01 1.232-1.63.314-.444.712-.5 1.129-.343.426.149 2.676 1.26 3.139 1.492.463.231.768.342.88.537.11.194.11 1.111-.269 2.186-.38 1.074-1.889 1.963-3.093 2.222-.823.176-1.898.315-5.518-1.185-4.63-1.917-7.61-6.622-7.842-6.928-.222-.305-1.87-2.491-1.87-4.751 0-2.26 1.148-3.362 1.61-3.834.38-.39 1.01-.565 1.612-.565.194 0 .37.009.528.018.462.019.694.047 1 .778zM15.75 0C7.065 0 0 7.067 0 15.754c0 3.445 1.111 6.64 3 9.234L1.037 30.84l6.055-1.935a15.629 15.629 0 0 0 8.667 2.602c8.684 0 15.749-7.067 15.749-15.754S24.443 0 15.758 0h-.009z"/></g></g></svg>